<svg width="326" height="326" viewBox="0 0 326 326" fill="none" xmlns="http://www.w3.org/2000/svg">
<g clip-path="url(#clip0_102_872)">
<path d="M230.707 265.663L279.359 323.643C281.25 325.897 284.61 326.195 286.868 324.3L307.602 306.902C309.856 305.011 310.151 301.647 308.259 299.393L256.181 237.329L231.364 258.153C230.155 259.168 229.511 260.606 229.463 262.066C229.424 263.33 229.83 264.617 230.707 265.663Z" fill="#1B821B"/>
<path d="M229.463 262.066L259.004 268.638C262.24 269.36 265.631 268.533 268.17 266.402L275.45 260.292L256.182 237.329L231.365 258.153C230.155 259.168 229.511 260.606 229.463 262.066Z" fill="#175E17"/>
<path d="M288.959 248.956L268.22 266.36C265.967 268.247 262.606 267.952 260.714 265.699L217.613 214.338L203.621 197.661L232.521 173.412L247.947 191.792L289.614 241.45C291.507 243.703 291.212 247.07 288.959 248.956Z" fill="#39DD39"/>
<path d="M247.947 191.792C244.442 195.859 239.32 198.329 233.969 198.329C231.513 198.329 229.102 197.818 226.835 196.835C227.242 201.185 226.108 205.469 223.528 209.038C221.936 211.226 219.912 213.028 217.613 214.337L203.621 197.661L232.521 173.412L247.947 191.792Z" fill="#175E17"/>
<path d="M94.8413 265.663L46.1896 323.643C44.2987 325.897 40.9383 326.195 38.6804 324.3L17.9464 306.902C15.6924 305.011 15.398 301.647 17.2896 299.393L69.3672 237.329L94.1845 258.153C95.3932 259.168 96.0373 260.606 96.0857 262.066C96.1244 263.33 95.7188 264.617 94.8413 265.663Z" fill="#1B821B"/>
<path d="M96.0857 262.066L66.5447 268.638C63.3089 269.36 59.918 268.533 57.3785 266.402L50.0981 260.292L69.3665 237.329L94.1839 258.153C95.3932 259.168 96.0373 260.606 96.0857 262.066Z" fill="#175E17"/>
<path d="M121.927 197.661L107.936 214.337L64.8348 265.698C62.9419 267.952 59.5815 268.246 57.3281 266.36L36.5897 248.956C34.3363 247.069 34.0419 243.702 35.9347 241.449L77.6011 191.791L93.0272 173.411L121.927 197.661Z" fill="#39DD39"/>
<path d="M93.0265 173.412L121.927 197.661L107.935 214.337C105.636 213.028 103.612 211.226 102.027 209.038C99.4395 205.468 98.3065 201.185 98.7121 196.835C96.446 197.818 94.0349 198.329 91.5857 198.329H91.5793C86.2211 198.329 81.0988 195.859 77.6011 191.792L93.0265 173.412Z" fill="#175E17"/>
<path d="M169.745 6.41128C172.963 -3.62285 187.78 -1.27598 187.741 9.26174C187.714 16.3818 196.837 19.3461 201.001 13.5702C207.162 5.02198 220.529 11.8324 217.235 21.8418C215.009 28.6052 222.77 34.2438 228.514 30.0371C237.016 23.811 247.624 34.4192 241.398 42.921C237.192 48.6658 242.83 56.4262 249.594 54.2008C259.603 50.9065 266.414 64.2737 257.865 70.4349C252.089 74.5984 255.054 83.722 262.174 83.6947C272.711 83.6553 275.058 98.4722 265.024 101.691C258.244 103.865 258.244 113.458 265.024 115.633C275.058 118.852 272.711 133.669 262.174 133.629C255.054 133.603 252.089 142.726 257.865 146.889C266.413 153.051 259.603 166.418 249.594 163.123C242.83 160.898 237.192 168.658 241.398 174.403C247.625 182.905 237.016 193.513 228.514 187.287C222.77 183.08 215.009 188.719 217.235 195.482C220.529 205.492 207.162 212.303 201.001 203.754C196.837 197.978 187.713 200.942 187.741 208.062C187.78 218.6 172.963 220.947 169.745 210.913C167.57 204.133 157.977 204.133 155.802 210.913C152.583 220.947 137.767 218.6 137.806 208.062C137.833 200.942 128.71 197.978 124.546 203.754C118.384 212.302 105.018 205.492 108.312 195.482C110.538 188.719 102.777 183.08 97.0323 187.287C88.5306 193.513 77.9229 182.905 84.1484 174.403C88.3551 168.658 82.7165 160.898 75.9531 163.123C65.9438 166.418 59.1327 153.05 67.6815 146.889C73.4574 142.726 70.4932 133.602 63.3731 133.629C52.8353 133.669 50.4885 118.852 60.5226 115.633C67.3025 113.459 67.3025 103.866 60.5226 101.691C50.4885 98.4722 52.8353 83.6553 63.3731 83.6947C70.4932 83.7214 73.4574 74.5984 67.6815 70.4349C59.1333 64.273 65.9438 50.9065 75.9531 54.2008C82.7165 56.4262 88.3551 48.6658 84.1484 42.921C77.9223 34.4192 88.5306 23.8116 97.0323 30.0371C102.777 34.2438 110.538 28.6052 108.312 21.8418C105.018 11.8324 118.385 5.02134 124.546 13.5702C128.71 19.3461 137.833 16.3818 137.806 9.26174C137.767 -1.27598 152.583 -3.62285 155.802 6.41128C157.977 13.1912 167.57 13.1912 169.745 6.41128Z" fill="#C1C1C1"/>
<path d="M162.772 195.47C210.712 195.47 249.576 156.607 249.576 108.666C249.576 60.7252 210.712 21.8616 162.772 21.8616C114.831 21.8616 75.9673 60.7252 75.9673 108.666C75.9673 156.607 114.831 195.47 162.772 195.47Z" fill="#868686"/>
<path d="M162.598 185.799C205.197 185.799 239.73 151.265 239.73 108.666C239.73 66.0667 205.197 31.5332 162.598 31.5332C119.998 31.5332 85.4648 66.0667 85.4648 108.666C85.4648 151.265 119.998 185.799 162.598 185.799Z" fill="#39DD39"/>
<path d="M239.907 108.668C239.907 151.263 205.368 185.801 162.774 185.801C160.405 185.801 158.061 185.694 155.747 185.484C195.051 181.937 225.852 148.894 225.852 108.668C225.852 68.4358 195.051 35.3984 155.747 31.8517C158.061 31.6425 160.405 31.5344 162.774 31.5344C205.369 31.5357 239.907 66.068 239.907 108.668Z" fill="#2CAD2C"/>
<path d="M149.76 151.548C145.92 151.548 141.995 150.823 137.984 149.372C134.059 147.836 130.816 145.959 128.256 143.74C125.696 141.436 124.416 139.218 124.416 137.084C124.416 134.268 125.824 131.964 128.64 130.172C131.541 128.295 135.424 127.356 140.288 127.356C142.336 127.356 143.915 127.442 145.024 127.612C145.877 131.708 147.2 135.548 148.992 139.132C154.795 137.596 159.445 135.548 162.944 132.988C166.528 130.343 169.387 126.674 171.52 121.98C168.96 121.212 166.187 120.828 163.2 120.828C160.981 120.828 158.336 121.084 155.264 121.596C154.667 121.682 154.027 121.767 153.344 121.852C152.661 121.938 151.979 121.98 151.296 121.98C150.443 121.98 149.845 121.895 149.504 121.724C147.627 120.786 145.92 119.079 144.384 116.604C142.933 114.13 142.208 111.655 142.208 109.18C142.208 107.9 142.976 106.791 144.512 105.852C146.048 104.914 148.523 103.719 151.936 102.268C157.824 99.8791 162.731 97.3191 166.656 94.5884C170.667 91.8578 173.611 88.0604 175.488 83.1964C170.709 83.6231 166.187 84.8178 161.92 86.7804C157.653 88.7431 153.387 91.3884 149.12 94.7164C145.792 94.0338 143.147 92.6258 141.184 90.4924C139.307 88.3591 138.368 86.0124 138.368 83.4524C138.368 80.3804 139.947 77.5218 143.104 74.8764C146.347 72.1458 150.528 70.0124 155.648 68.4764C160.853 66.8551 166.229 66.0444 171.776 66.0444C174.848 66.0444 177.963 67.0684 181.12 69.1164C184.363 71.1644 187.008 73.6391 189.056 76.5404C191.189 79.4418 192.256 82.0444 192.256 84.3484C192.256 89.2978 189.824 93.9484 184.96 98.3004C180.096 102.652 173.355 106.194 164.736 108.924L165.248 110.332C170.027 110.162 174.421 110.716 178.432 111.996C182.528 113.276 185.771 114.94 188.16 116.988C190.549 119.036 191.744 120.956 191.744 122.748C191.744 127.442 189.568 132.05 185.216 136.572C180.949 141.01 175.531 144.636 168.96 147.452C162.389 150.183 155.989 151.548 149.76 151.548Z" fill="#1B821B"/>
</g>
<defs>
<clipPath id="clip0_102_872">
<rect width="325.548" height="325.548" fill="white"/>
</clipPath>
</defs>
</svg>
