<svg width="326" height="326" viewBox="0 0 326 326" fill="none" xmlns="http://www.w3.org/2000/svg">
<g clip-path="url(#clip0_102_829)">
<path d="M230.707 265.663L279.358 323.643C281.249 325.897 284.61 326.195 286.868 324.3L307.602 306.902C309.856 305.011 310.15 301.647 308.259 299.393L256.181 237.329L231.364 258.153C230.155 259.168 229.511 260.606 229.462 262.066C229.424 263.33 229.829 264.617 230.707 265.663Z" fill="#2990A2"/>
<path d="M229.462 262.066L259.003 268.638C262.239 269.36 265.63 268.533 268.17 266.402L275.45 260.292L256.182 237.329L231.364 258.153C230.155 259.168 229.511 260.606 229.462 262.066Z" fill="#1B4B53"/>
<path d="M288.958 248.956L268.22 266.36C265.966 268.247 262.606 267.952 260.713 265.699L217.612 214.338L203.621 197.661L232.521 173.412L247.947 191.792L289.613 241.45C291.507 243.703 291.212 247.07 288.958 248.956Z" fill="#4ED4EB"/>
<path d="M247.947 191.792C244.442 195.859 239.32 198.329 233.968 198.329C231.512 198.329 229.102 197.818 226.835 196.835C227.241 201.185 226.108 205.469 223.527 209.038C221.936 211.226 219.911 213.028 217.612 214.337L203.621 197.661L232.521 173.412L247.947 191.792Z" fill="#1B4B53"/>
<path d="M94.8413 265.663L46.1896 323.643C44.2987 325.897 40.9383 326.195 38.6804 324.3L17.9464 306.902C15.6924 305.011 15.398 301.647 17.2896 299.393L69.3672 237.329L94.1845 258.153C95.3932 259.168 96.0373 260.606 96.0857 262.066C96.1244 263.33 95.7188 264.617 94.8413 265.663Z" fill="#2990A2"/>
<path d="M96.0852 262.066L66.5442 268.638C63.3084 269.36 59.9175 268.533 57.378 266.402L50.0977 260.292L69.3661 237.329L94.1834 258.153C95.3928 259.168 96.0369 260.606 96.0852 262.066Z" fill="#1B4B53"/>
<path d="M121.927 197.661L107.936 214.337L64.8348 265.698C62.9419 267.952 59.5815 268.246 57.3281 266.36L36.5897 248.956C34.3363 247.069 34.0419 243.702 35.9347 241.449L77.6011 191.791L93.0272 173.411L121.927 197.661Z" fill="#4ED4EB"/>
<path d="M93.0274 173.412L121.927 197.661L107.936 214.337C105.637 213.028 103.613 211.226 102.028 209.038C99.4405 205.468 98.3074 201.185 98.7131 196.835C96.447 197.818 94.0359 198.329 91.5866 198.329H91.5803C86.2221 198.329 81.0998 195.859 77.6021 191.792L93.0274 173.412Z" fill="#1B4B53"/>
<path d="M169.746 6.41128C172.965 -3.62285 187.782 -1.27598 187.742 9.26174C187.716 16.3818 196.839 19.3461 201.002 13.5702C207.164 5.02198 220.53 11.8324 217.236 21.8418C215.011 28.6052 222.771 34.2438 228.516 30.0371C237.018 23.811 247.625 34.4192 241.4 42.921C237.193 48.6658 242.832 56.4262 249.595 54.2008C259.605 50.9065 266.416 64.2737 257.867 70.4349C252.091 74.5984 255.055 83.722 262.175 83.6947C272.713 83.6553 275.06 98.4722 265.026 101.691C258.246 103.865 258.246 113.458 265.026 115.633C275.06 118.852 272.713 133.669 262.175 133.629C255.055 133.603 252.091 142.726 257.867 146.889C266.415 153.051 259.605 166.418 249.595 163.123C242.832 160.898 237.193 168.658 241.4 174.403C247.626 182.905 237.018 193.513 228.516 187.287C222.771 183.08 215.011 188.719 217.236 195.482C220.53 205.492 207.163 212.303 201.002 203.754C196.839 197.978 187.715 200.942 187.742 208.062C187.782 218.6 172.965 220.947 169.746 210.913C167.572 204.133 157.979 204.133 155.804 210.913C152.585 220.947 137.768 218.6 137.807 208.062C137.834 200.942 128.711 197.978 124.548 203.754C118.386 212.302 105.019 205.492 108.314 195.482C110.539 188.719 102.779 183.08 97.0338 187.287C88.532 193.513 77.9244 182.905 84.1499 174.403C88.3566 168.658 82.718 160.898 75.9546 163.123C65.9452 166.418 59.1341 153.05 67.683 146.889C73.4589 142.726 70.4946 133.602 63.3745 133.629C52.8368 133.669 50.4899 118.852 60.5241 115.633C67.304 113.459 67.304 103.866 60.5241 101.691C50.4899 98.4722 52.8368 83.6553 63.3745 83.6947C70.4946 83.7214 73.4589 74.5984 67.683 70.4349C59.1348 64.273 65.9452 50.9065 75.9546 54.2008C82.718 56.4262 88.3566 48.6658 84.1499 42.921C77.9237 34.4192 88.532 23.8116 97.0338 30.0371C102.779 34.2438 110.539 28.6052 108.314 21.8418C105.019 11.8324 118.386 5.02134 124.548 13.5702C128.711 19.3461 137.835 16.3818 137.807 9.26174C137.768 -1.27598 152.585 -3.62285 155.804 6.41128C157.978 13.1912 167.571 13.1912 169.746 6.41128Z" fill="#C1C1C1"/>
<path d="M162.773 195.47C210.713 195.47 249.577 156.607 249.577 108.666C249.577 60.7252 210.713 21.8616 162.773 21.8616C114.832 21.8616 75.9683 60.7252 75.9683 108.666C75.9683 156.607 114.832 195.47 162.773 195.47Z" fill="#868686"/>
<path d="M162.598 185.799C205.197 185.799 239.73 151.265 239.73 108.666C239.73 66.0667 205.197 31.5332 162.598 31.5332C119.998 31.5332 85.4648 66.0667 85.4648 108.666C85.4648 151.265 119.998 185.799 162.598 185.799Z" fill="#4ED4EB"/>
<path d="M239.907 108.668C239.907 151.263 205.368 185.801 162.774 185.801C160.405 185.801 158.061 185.694 155.747 185.484C195.051 181.937 225.852 148.894 225.852 108.668C225.852 68.4358 195.051 35.3984 155.747 31.8517C158.061 31.6425 160.405 31.5344 162.774 31.5344C205.369 31.5357 239.907 66.068 239.907 108.668Z" fill="#2BBCD5"/>
<path d="M157.099 93.3884C154.539 95.9484 152.406 97.9538 150.699 99.4044C148.992 100.77 147.627 101.452 146.603 101.452C145.323 101.452 143.744 100.684 141.867 99.1484C140.075 97.5271 138.496 95.6498 137.131 93.5164C135.766 91.3831 135.083 89.5058 135.083 87.8844C135.083 86.2631 137.088 83.8738 141.099 80.7164C145.195 77.5591 149.675 74.6578 154.539 72.0124C159.403 69.3671 162.816 68.0444 164.779 68.0444C166.742 68.0444 169.046 68.7698 171.691 70.2204C174.336 71.6711 176.598 73.4631 178.475 75.5964C180.352 77.6444 181.291 79.5218 181.291 81.2284C181.291 83.1911 180.224 87.9698 178.091 95.5644C175.702 104.268 174.123 110.882 173.355 115.404C172.672 119.074 171.862 125.431 170.923 134.476C170.24 141.218 169.6 146.082 169.003 149.068C168.406 152.055 167.552 153.548 166.443 153.548C164.31 153.548 161.878 152.908 159.147 151.628C156.416 150.348 154.07 148.812 152.107 147.02C150.144 145.228 149.163 143.65 149.163 142.284C149.163 140.492 149.76 136.396 150.955 129.996C152.235 123.596 153.814 116.855 155.691 109.772C157.654 102.604 159.744 96.7164 161.963 92.1084L159.915 90.7004L157.099 93.3884Z" fill="#2990A2"/>
</g>
<defs>
<clipPath id="clip0_102_829">
<rect width="325.548" height="325.548" fill="white"/>
</clipPath>
</defs>
</svg>
