<svg width="246" height="307" viewBox="0 0 246 307" fill="none" xmlns="http://www.w3.org/2000/svg">
<g clip-path="url(#clip0_12_8)">
<path d="M210.924 306.998H33.6331C23.2042 306.998 13.8183 302.684 7.56093 295.493C2.60722 289.501 0 283.029 0 275.839V105.901C0 90.3215 10.4289 78.0975 26.8544 74.7419C36.5011 72.8244 43.8013 67.3116 47.1907 59.8813C48.755 56.5257 49.5372 52.6907 49.5372 48.3764V26.5649C49.5372 25.1268 50.58 24.168 52.1444 24.168C53.7087 24.168 54.7516 25.1268 54.7516 26.5649V48.3764C54.7516 53.1701 53.9694 57.7241 52.1444 61.7988C47.9728 70.9069 39.6297 77.1388 28.158 79.5356C17.7291 81.6928 5.47516 89.8421 5.47516 105.901V275.839C5.47516 281.831 7.56094 287.344 11.9932 292.617C17.2076 298.849 25.0293 302.204 33.8938 302.204H211.185C219.267 302.204 226.307 299.568 231.521 294.534C237.257 289.261 240.125 282.79 240.125 275.839V105.901C240.125 92.239 230.739 81.4531 217.703 79.5356C206.752 77.8578 197.888 71.626 193.716 62.2782C191.891 58.2035 190.848 53.4098 190.848 48.6161V26.5649C190.848 25.1268 191.891 24.168 193.456 24.168C195.02 24.168 196.063 25.1268 196.063 26.5649V48.3764C196.063 52.6907 196.845 56.7654 198.67 60.3607C202.32 68.2704 209.62 73.5435 218.746 74.7419C234.65 76.8991 245.6 89.8421 245.6 105.901V275.839C245.6 283.988 242.211 291.419 235.432 297.89C228.914 303.643 220.31 306.998 210.924 306.998Z" fill="#E7E7E7"/>
<path d="M192.504 28.8327H51.7475C47.5847 28.8327 44.2024 25.7319 44.2024 21.6771V16.9067C44.2024 12.8519 47.3245 9.75116 51.7475 9.75116H62.4148C63.9759 9.75116 65.0166 10.7052 65.0166 12.1363C65.0166 13.5675 63.9759 14.5215 62.4148 14.5215H51.7475C50.1865 14.5215 49.4059 15.7141 49.4059 16.9067V21.6771C49.4059 22.8697 50.1865 24.0623 51.7475 24.0623H192.504C194.065 24.0623 195.366 22.8697 195.366 21.6771V16.9067C195.366 15.7141 194.065 14.5215 192.504 14.5215H179.755C178.194 14.5215 177.153 13.5675 177.153 12.1363C177.153 10.7052 178.194 9.75116 179.755 9.75116H192.504C196.927 9.75116 200.569 13.0904 200.569 16.9067V21.6771C200.569 25.4934 196.927 28.8327 192.504 28.8327Z" fill="#E7E7E7"/>
<path d="M180.028 14.4171C178.461 14.4171 177.416 13.456 177.416 12.0143V6.00714C177.416 5.52657 176.371 4.80571 174.543 4.80571H67.4658C65.8988 4.80571 64.8542 5.52657 64.8542 6.00714V12.0143C64.8542 13.456 63.8095 14.4171 62.2425 14.4171C60.6755 14.4171 59.6309 13.456 59.6309 12.0143V6.00714C59.6309 2.64314 63.026 0 67.4658 0H174.543C178.983 0 182.639 2.88343 182.639 6.00714V12.0143C182.639 13.456 181.595 14.4171 180.028 14.4171Z" fill="#E7E7E7"/>
<path d="M210.734 295.127H33.5185C22.0516 295.127 12.9302 286.734 12.9302 275.944V105.936C12.9302 100.181 15.0151 95.1458 19.1848 91.7888C21.2697 89.8706 23.8758 88.4318 26.7426 87.4727C27.785 87.2329 28.5668 86.9931 29.6093 86.7533C34.8215 85.5544 39.5125 83.8759 43.6823 81.4781C48.6339 78.6007 52.8037 74.7641 55.931 70.448L56.1916 70.2082C58.0159 67.3308 59.5796 64.2135 60.622 60.8566V60.6168C61.6645 56.7802 62.4463 52.7039 62.4463 48.6275V26.5673C62.4463 25.1286 63.4888 24.1694 65.0524 24.1694C66.6161 24.1694 67.6585 25.1286 67.6585 26.5673V48.3877C67.6585 52.9436 66.8767 57.4996 65.8343 61.8157V62.0555C64.7918 65.6523 62.9675 69.249 60.622 72.3662C60.622 72.3662 60.3614 72.606 60.3614 72.8458C56.9735 77.8813 52.2825 82.1974 46.549 85.5544C46.549 85.5544 46.549 85.5544 46.2884 85.5544C41.5974 88.1921 36.3852 90.1103 30.6517 91.3093C29.8699 91.549 29.0881 91.7888 28.3062 92.0286C26.2213 92.748 24.1365 93.9469 22.5728 95.3856C19.4455 98.0233 18.1424 101.62 18.1424 106.176V275.944C18.1424 284.096 24.9183 290.331 33.5185 290.331H210.734C219.334 290.331 226.631 283.857 226.631 275.944V105.936C226.631 102.819 225.85 99.9415 224.546 97.5437C222.462 94.1867 219.074 92.0286 215.164 91.549C213.34 91.3093 211.777 90.8297 210.213 90.5899C205.001 89.391 199.788 87.2329 195.097 84.1157C190.406 80.9985 186.237 76.6824 183.109 71.4071C182.327 70.2082 182.849 68.7695 184.152 68.0501C185.455 67.3308 187.018 67.8103 187.8 69.0093C190.667 73.5652 194.316 77.4017 198.225 80.0394C202.395 82.9168 206.825 84.8351 211.516 85.7942C212.819 86.034 214.383 86.5136 215.946 86.7533C221.419 87.4727 226.371 90.5899 228.977 95.1458C230.801 98.263 231.844 101.86 231.844 105.936V275.944C231.844 286.494 222.201 295.127 210.734 295.127Z" fill="#E7E7E7"/>
<path d="M179.909 53.4277C178.564 53.4277 177.219 52.4762 177.219 51.2869C177.219 50.3354 177.219 49.146 177.219 48.1945V26.5482C177.219 25.1209 178.295 24.1694 179.909 24.1694C181.523 24.1694 182.599 25.1209 182.599 26.5482V48.1945C182.599 49.146 182.599 50.0975 182.599 51.049C182.868 52.2384 181.792 53.4277 179.909 53.4277C180.178 53.4277 180.178 53.4277 179.909 53.4277Z" fill="#E7E7E7"/>
<path d="M77.3722 65.3005C71.1565 65.3005 67.5306 64.6066 63.9048 62.7563C63.3868 62.7563 62.8688 62.7563 62.6098 62.7563C61.0559 62.2937 58.984 62.2937 56.1351 62.2937C53.8042 62.2937 51.9913 62.7563 50.6963 62.9876C49.4014 63.2189 47.8474 62.525 47.5884 61.3686C47.3295 60.2121 48.1064 58.8244 49.4014 58.5931C51.2143 58.1305 53.2862 57.6679 56.3941 57.6679C59.243 57.6679 61.5739 57.6679 63.3868 58.1305C64.1638 57.8992 65.1997 57.8992 65.9767 58.3618C69.3435 60.4434 71.9334 60.906 77.8902 60.906C79.4441 60.906 80.4801 61.8311 80.4801 63.2189C80.4801 64.6066 78.6672 65.3005 77.3722 65.3005Z" fill="#E7E7E7"/>
<path d="M166.71 67.1769C166.449 67.1769 166.449 67.1769 166.188 67.1769C165.928 67.1769 165.667 67.1769 165.667 67.1769H165.406C160.45 66.933 157.581 65.7139 154.973 64.4948C154.452 64.251 153.93 64.0072 153.147 63.7634C151.061 63.0319 148.714 62.3005 144.541 62.3005C140.628 62.3005 138.281 63.0319 136.455 63.7634C135.934 64.0072 135.151 64.251 134.629 64.4948C131.76 65.7139 128.631 67.1769 122.371 67.1769C116.111 67.1769 112.982 65.7139 110.113 64.4948C109.33 64.251 108.808 63.7634 108.026 63.5196C106.2 62.7881 104.114 62.3005 100.201 62.3005C96.2892 62.3005 94.2027 63.0319 92.6378 63.5196C88.2039 65.2263 84.2916 65.4701 77.2495 65.4701C75.6846 65.4701 74.6414 64.4948 74.6414 63.0319C74.6414 61.569 75.6846 60.5937 77.2495 60.5937C84.5524 60.5937 87.4214 60.3499 90.8121 59.1308C93.681 58.1555 96.5501 57.6679 100.201 57.6679C104.896 57.6679 108.026 58.6432 109.852 59.3746C110.634 59.6185 111.417 60.1061 112.199 60.3499C114.807 61.569 117.155 62.5443 122.11 62.5443C127.066 62.5443 129.413 61.569 132.021 60.3499C132.804 60.1061 133.325 59.8623 134.108 59.3746C136.455 58.3994 139.324 57.6679 144.28 57.6679C149.235 57.6679 152.365 58.6432 154.973 59.6185C155.756 59.8623 156.277 60.1061 156.799 60.3499C159.146 61.3252 161.233 62.3005 165.145 62.5443C165.406 62.5443 165.406 62.5443 165.667 62.5443C165.667 62.5443 165.928 62.5443 166.188 62.5443C166.449 62.5443 166.449 62.5443 166.71 62.5443C166.971 62.5443 166.971 62.5443 167.232 62.5443C171.144 62.3005 173.23 61.3252 175.317 60.3499L175.839 60.1061C175.839 60.1061 176.099 60.1061 176.099 59.8623C178.447 58.887 181.316 57.6679 186.532 57.6679C191.227 57.6679 194.096 58.3994 195.922 59.1308C197.226 59.6185 198.008 61.0814 197.486 62.3005C196.965 63.5196 195.4 64.251 194.096 63.7634C192.531 63.2757 190.184 62.5443 186.532 62.5443C182.359 62.5443 180.273 63.2757 178.447 64.251C178.447 64.251 178.186 64.251 178.186 64.4948L177.925 64.7387C175.578 65.9578 172.97 67.1769 167.753 67.4207C167.753 67.4207 167.753 67.4207 167.492 67.4207C167.232 67.1769 166.971 67.1769 166.71 67.1769ZM162.798 64.7387C162.798 65.7139 163.319 66.6892 164.363 66.933C163.58 66.4454 162.798 65.7139 162.798 64.7387Z" fill="#E7E7E7"/>
<path fill-rule="evenodd" clip-rule="evenodd" d="M84.8784 127.817C81.7207 127.817 78.2633 128.012 74.954 129.205L74.954 129.205C65.0463 132.779 56.9396 141.042 51.4646 155.138C46.0121 169.176 43.1007 189.145 43.5563 216.529C43.6498 222.151 44.3417 228.229 46.3458 233.579C48.3604 238.958 51.7628 243.748 57.3313 246.456C60.6557 248.073 64.5652 249.149 69.0093 249.149C74.3554 249.149 78.6695 247.592 82.0223 245.357L80.7125 243.392L82.0223 245.357C85.3468 243.141 88.2644 240.269 90.9915 237.584L90.9933 237.582C91.3195 237.261 91.6431 236.942 91.9642 236.628C95.0513 233.606 97.9665 230.914 101.335 229.138C105.461 226.962 110.039 225.827 114.681 225.827H129.953C134.596 225.827 139.173 226.962 143.299 229.138C146.668 230.914 149.583 233.606 152.671 236.628C152.992 236.942 153.315 237.261 153.641 237.582L153.643 237.584C156.37 240.269 159.288 243.141 162.612 245.357C165.965 247.592 170.279 249.149 175.625 249.149C180.069 249.149 183.979 248.073 187.303 246.456C192.872 243.748 196.274 238.958 198.289 233.579C200.293 228.229 200.985 222.151 201.079 216.529C201.226 207.65 201.02 199.557 200.489 192.2C200.395 190.899 199.264 189.921 197.963 190.015C196.662 190.108 195.684 191.239 195.778 192.54C196.297 199.739 196.502 207.69 196.356 216.45C196.267 221.804 195.605 227.28 193.866 231.923C192.137 236.538 189.408 240.181 185.238 242.209L185.237 242.209C182.492 243.544 179.285 244.426 175.625 244.426C171.247 244.426 167.839 243.165 165.232 241.427L164.002 243.272L165.232 241.427C162.306 239.477 159.72 236.934 156.943 234.204C156.623 233.889 156.3 233.572 155.974 233.253C152.901 230.245 149.549 227.094 145.503 224.96L145.502 224.96C140.7 222.428 135.367 221.104 129.953 221.104H114.681C109.268 221.104 103.935 222.428 99.1324 224.96C95.0859 227.094 91.7335 230.245 88.6604 233.253C88.3372 233.569 88.0174 233.884 87.7 234.196L87.6919 234.204L87.6915 234.204C84.9147 236.934 82.3289 239.477 79.4028 241.427C76.7954 243.165 73.3873 244.426 69.0093 244.426C65.3494 244.426 62.1425 243.544 59.3974 242.209L59.3971 242.209C55.2271 240.181 52.4973 236.538 50.7688 231.923C49.0299 227.28 48.3677 221.804 48.2787 216.45C47.828 189.358 50.7281 170.08 55.8672 156.848C60.984 143.674 68.2492 136.644 76.5563 133.648C79.0713 132.741 81.8563 132.54 84.8784 132.54H89.5605C95.7712 132.54 101.833 134.499 106.91 138.153L106.91 138.153L110.747 140.914L112.126 138.997L110.747 140.914C114.126 143.346 118.169 144.655 122.317 144.655C126.466 144.655 130.509 143.346 133.889 140.914L137.725 138.153L137.725 138.153C142.802 134.499 148.864 132.54 155.074 132.54H159.756C162.778 132.54 165.563 132.741 168.078 133.648L168.078 133.648C177.388 137.006 185.419 145.449 190.55 161.974C190.936 163.22 192.26 163.916 193.505 163.53C194.751 163.143 195.447 161.82 195.06 160.574C189.649 143.143 180.817 133.222 169.68 129.205C166.371 128.012 162.914 127.817 159.756 127.817H155.074C147.867 127.817 140.842 130.091 134.966 134.319L134.966 134.319L131.13 137.08L131.13 137.081C128.549 138.938 125.47 139.932 122.317 139.932C119.165 139.932 116.086 138.938 113.506 137.081L109.669 134.319L109.669 134.319C103.793 130.091 96.7675 127.817 89.5605 127.817H84.8784ZM91.5888 165.797C91.5888 163.806 89.9751 162.192 87.9845 162.192C85.9939 162.192 84.3802 163.806 84.3802 165.797V175.761H74.6412C72.6506 175.761 71.0369 177.375 71.0369 179.366C71.0369 181.356 72.6506 182.97 74.6412 182.97H84.3802V192.935C84.3802 194.925 85.9939 196.539 87.9845 196.539C89.9751 196.539 91.5888 194.925 91.5888 192.935V182.97H101.328C103.318 182.97 104.932 181.356 104.932 179.366C104.932 177.375 103.318 175.761 101.328 175.761H91.5888V165.797ZM175.827 178.766C175.827 181.986 173.26 184.597 170.093 184.597C166.927 184.597 164.36 181.986 164.36 178.766C164.36 175.546 166.927 172.936 170.093 172.936C173.26 172.936 175.827 175.546 175.827 178.766ZM147.16 184.597C150.326 184.597 152.893 181.986 152.893 178.766C152.893 175.546 150.326 172.936 147.16 172.936C143.993 172.936 141.426 175.546 141.426 178.766C141.426 181.986 143.993 184.597 147.16 184.597ZM158.628 161.274C161.794 161.274 164.361 163.884 164.361 167.104C164.361 170.324 161.794 172.935 158.628 172.935C155.461 172.935 152.894 170.324 152.894 167.104C152.894 163.884 155.461 161.274 158.628 161.274ZM164.36 190.428C164.36 187.208 161.793 184.597 158.626 184.597C155.46 184.597 152.893 187.208 152.893 190.428C152.893 193.648 155.46 196.258 158.626 196.258C161.793 196.258 164.36 193.648 164.36 190.428Z" fill="url(#paint0_linear_12_8)"/>
</g>
<defs>
<linearGradient id="paint0_linear_12_8" x1="201.518" y1="249.536" x2="27.5629" y2="157.143" gradientUnits="userSpaceOnUse">
<stop offset="0.0533378" stop-color="#39DD39"/>
<stop offset="0.416589" stop-color="#4ED4EE"/>
<stop offset="0.822215" stop-color="#8244E5"/>
</linearGradient>
<clipPath id="clip0_12_8">
<rect width="245.6" height="307" fill="white"/>
</clipPath>
</defs>
</svg>
