<svg width="326" height="326" viewBox="0 0 326 326" fill="none" xmlns="http://www.w3.org/2000/svg">
<g clip-path="url(#clip0_102_851)">
<path d="M230.706 265.663L279.358 323.643C281.249 325.897 284.609 326.195 286.867 324.3L307.601 306.902C309.855 305.011 310.15 301.647 308.258 299.393L256.18 237.329L231.363 258.153C230.154 259.168 229.51 260.606 229.462 262.066C229.423 263.33 229.829 264.617 230.706 265.663Z" fill="#5828A4"/>
<path d="M229.462 262.066L259.003 268.638C262.239 269.36 265.63 268.533 268.169 266.402L275.449 260.292L256.181 237.329L231.364 258.153C230.154 259.168 229.51 260.606 229.462 262.066Z" fill="#421F7A"/>
<path d="M288.958 248.956L268.219 266.36C265.966 268.247 262.605 267.952 260.713 265.699L217.612 214.338L203.62 197.662L232.52 173.413L247.946 191.793L289.613 241.45C291.506 243.703 291.211 247.07 288.958 248.956Z" fill="#8243E5"/>
<path d="M247.946 191.792C244.441 195.859 239.319 198.329 233.968 198.329C231.512 198.329 229.101 197.818 226.835 196.835C227.241 201.185 226.107 205.469 223.527 209.038C221.935 211.226 219.911 213.028 217.612 214.337L203.62 197.661L232.52 173.412L247.946 191.792Z" fill="#421F7A"/>
<path d="M94.8408 265.663L46.1892 323.643C44.2982 325.897 40.9378 326.195 38.6799 324.3L17.9459 306.902C15.6919 305.011 15.3975 301.647 17.2891 299.393L69.3667 237.329L94.184 258.153C95.3927 259.168 96.0368 260.606 96.0852 262.066C96.124 263.33 95.7183 264.617 94.8408 265.663Z" fill="#5828A4"/>
<path d="M96.0852 262.066L66.5442 268.638C63.3084 269.36 59.9175 268.533 57.378 266.402L50.0977 260.292L69.3661 237.329L94.1834 258.153C95.3928 259.168 96.0369 260.606 96.0852 262.066Z" fill="#421F7A"/>
<path d="M121.927 197.661L107.935 214.337L64.8343 265.698C62.9414 267.952 59.581 268.246 57.3276 266.36L36.5892 248.956C34.3358 247.069 34.0414 243.702 35.9343 241.449L77.6006 191.791L93.0267 173.411L121.927 197.661Z" fill="#8243E5"/>
<path d="M93.026 173.412L121.926 197.661L107.934 214.337C105.635 213.028 103.611 211.226 102.026 209.038C99.439 205.468 98.306 201.185 98.7116 196.835C96.4455 197.818 94.0344 198.329 91.5852 198.329H91.5788C86.2206 198.329 81.0983 195.859 77.6006 191.792L93.026 173.412Z" fill="#421F7A"/>
<path d="M169.746 6.41128C172.964 -3.62285 187.781 -1.27598 187.742 9.26174C187.715 16.3818 196.838 19.3461 201.002 13.5702C207.163 5.02198 220.53 11.8324 217.236 21.8418C215.01 28.6052 222.771 34.2438 228.515 30.0371C237.017 23.811 247.625 34.4192 241.399 42.921C237.193 48.6658 242.831 56.4262 249.595 54.2008C259.604 50.9065 266.415 64.2737 257.866 70.4349C252.09 74.5984 255.055 83.722 262.175 83.6947C272.712 83.6553 275.059 98.4722 265.025 101.691C258.245 103.865 258.245 113.458 265.025 115.633C275.059 118.852 272.712 133.669 262.175 133.629C255.055 133.603 252.09 142.726 257.866 146.889C266.414 153.051 259.604 166.418 249.595 163.123C242.831 160.898 237.193 168.658 241.399 174.403C247.626 182.905 237.017 193.513 228.515 187.287C222.771 183.08 215.01 188.719 217.236 195.482C220.53 205.492 207.163 212.303 201.002 203.754C196.838 197.978 187.714 200.942 187.742 208.062C187.781 218.6 172.964 220.947 169.746 210.913C167.571 204.133 157.978 204.133 155.803 210.913C152.584 220.947 137.768 218.6 137.807 208.062C137.834 200.942 128.711 197.978 124.547 203.754C118.385 212.302 105.019 205.492 108.313 195.482C110.538 188.719 102.778 183.08 97.0333 187.287C88.5316 193.513 77.9239 182.905 84.1494 174.403C88.3561 168.658 82.7175 160.898 75.9541 163.123C65.9447 166.418 59.1337 153.05 67.6825 146.889C73.4584 142.726 70.4941 133.602 63.374 133.629C52.8363 133.669 50.4894 118.852 60.5236 115.633C67.3035 113.459 67.3035 103.866 60.5236 101.691C50.4894 98.4722 52.8363 83.6553 63.374 83.6947C70.4941 83.7214 73.4584 74.5984 67.6825 70.4349C59.1343 64.273 65.9447 50.9065 75.9541 54.2008C82.7175 56.4262 88.3561 48.6658 84.1494 42.921C77.9233 34.4192 88.5316 23.8116 97.0333 30.0371C102.778 34.2438 110.538 28.6052 108.313 21.8418C105.019 11.8324 118.386 5.02134 124.547 13.5702C128.711 19.3461 137.834 16.3818 137.807 9.26174C137.768 -1.27598 152.584 -3.62285 155.803 6.41128C157.978 13.1912 167.57 13.1912 169.746 6.41128Z" fill="#C1C1C1"/>
<path d="M162.771 195.47C210.712 195.47 249.576 156.607 249.576 108.666C249.576 60.7252 210.712 21.8616 162.771 21.8616C114.83 21.8616 75.9668 60.7252 75.9668 108.666C75.9668 156.607 114.83 195.47 162.771 195.47Z" fill="#868686"/>
<path d="M162.598 185.799C205.197 185.799 239.73 151.265 239.73 108.666C239.73 66.0667 205.197 31.5332 162.598 31.5332C119.998 31.5332 85.4648 66.0667 85.4648 108.666C85.4648 151.265 119.998 185.799 162.598 185.799Z" fill="#8243E5"/>
<path d="M239.906 108.668C239.906 151.263 205.367 185.801 162.773 185.801C160.405 185.801 158.061 185.694 155.746 185.484C195.051 181.937 225.852 148.894 225.852 108.668C225.852 68.4358 195.051 35.3984 155.746 31.8517C158.061 31.6425 160.405 31.5344 162.773 31.5344C205.368 31.5357 239.906 66.068 239.906 108.668Z" fill="#612FB0"/>
<path d="M140.712 152.548C138.322 152.548 135.805 151.439 133.16 149.22C130.6 147.002 128.424 144.356 126.632 141.284C124.925 138.127 124.072 135.396 124.072 133.092C124.072 131.215 125.352 129.124 127.912 126.82C130.557 124.431 134.653 121.274 140.2 117.348C146.088 113.082 150.824 109.455 154.408 106.468C158.077 103.482 161.49 100.068 164.648 96.2284C167.89 92.3884 170.066 88.3778 171.176 84.1964C166.482 84.6231 162.002 85.8178 157.736 87.7804C153.554 89.7431 149.33 92.3884 145.064 95.7164C141.736 95.0338 139.09 93.6258 137.128 91.4924C135.25 89.3591 134.312 87.0124 134.312 84.4524C134.312 81.3804 135.89 78.5218 139.048 75.8764C142.29 73.1458 146.472 71.0124 151.592 69.4764C156.797 67.8551 162.173 67.0444 167.72 67.0444C170.792 67.0444 173.906 68.0684 177.064 70.1164C180.306 72.1644 182.952 74.6391 185 77.5404C187.133 80.4418 188.2 83.0444 188.2 85.3484C188.2 93.5404 183.805 102.031 175.016 110.82C166.312 119.61 155.56 127.802 142.76 135.396L143.784 137.06C147.624 136.292 153 135.055 159.912 133.348C170.834 130.703 177.405 129.38 179.624 129.38C182.098 129.38 183.976 130.276 185.256 132.068C186.536 133.86 187.176 136.122 187.176 138.852C187.176 141.668 186.578 144.143 185.384 146.276L181.672 146.916C172.2 148.623 164.093 149.988 157.352 151.012C150.696 152.036 145.149 152.548 140.712 152.548Z" fill="#5828A4"/>
</g>
<defs>
<clipPath id="clip0_102_851">
<rect width="325.548" height="325.548" fill="white"/>
</clipPath>
</defs>
</svg>
